<svg width="14" height="14" viewBox="0 0 14 14" fill="none" xmlns="http://www.w3.org/2000/svg">
<path d="M13.8289 13.0246L11.4227 10.6721L11.3663 10.5863C11.2615 10.4819 11.1181 10.4231 10.9684 10.4231C10.8188 10.4231 10.6754 10.4819 10.5705 10.5863C8.52564 12.4623 5.3747 12.5643 3.2074 10.8246C1.0401 9.0849 0.528968 6.04336 2.01298 3.71712C3.49699 1.39088 6.51565 0.501793 9.06699 1.6395C11.6183 2.7772 12.9107 5.58865 12.0869 8.20932C12.0276 8.39864 12.0761 8.60452 12.2141 8.74942C12.3522 8.89431 12.5588 8.95619 12.7561 8.91176C12.9535 8.86733 13.1116 8.72333 13.1709 8.53401C14.1557 5.42405 12.6684 2.07729 9.67128 0.65874C6.67414 -0.759807 3.06659 0.175577 1.18234 2.85979C-0.701911 5.54401 -0.297375 9.1715 2.13425 11.3957C4.56588 13.6198 8.29485 13.7731 10.9089 11.7564L13.0394 13.8394C13.2594 14.0535 13.6151 14.0535 13.8351 13.8394C14.055 13.6221 14.055 13.2724 13.8351 13.0552L13.8289 13.0246Z" fill="white"/>
</svg>
