<svg width="11" height="10" viewBox="0 0 11 10" fill="none" xmlns="http://www.w3.org/2000/svg">
<path d="M8.84341 9.97154C8.45206 10.2376 5.94101 8.55102 5.4601 8.54733C4.97918 8.54363 2.43987 10.1914 2.05308 9.91939C1.66629 9.64736 2.57561 6.85316 2.4307 6.41669C2.28577 5.98023 -0.145437 4.19082 0.00686395 3.75664C0.159165 3.32246 3.23221 3.28212 3.62356 3.01607C4.0149 2.75001 5.05165 -0.00368975 5.53256 3.71204e-06C6.01347 0.00369749 7.0034 2.77296 7.39019 3.045C7.77697 3.31703 10.8489 3.40456 10.9938 3.84102C11.1388 4.27749 8.67753 6.02932 8.52523 6.4635C8.37293 6.89769 9.23475 9.70548 8.84341 9.97154Z" fill="url(#paint0_linear_22_4)"/>
<defs>
<linearGradient id="paint0_linear_22_4" x1="1.30628e-06" y1="5" x2="11" y2="5" gradientUnits="userSpaceOnUse">
<stop stop-color="#FCD635"/>
<stop offset="1" stop-color="#F7A928"/>
</linearGradient>
</defs>
</svg>
