<svg width="23" height="24" viewBox="0 0 23 24" fill="none" xmlns="http://www.w3.org/2000/svg">
<path d="M3.61057 2.95565C3.13629 2.95518 2.66657 3.04747 2.2283 3.22723C1.79003 3.407 1.39181 3.67071 1.05645 4.00328C0.721078 4.33585 0.455144 4.73074 0.273865 5.16535C0.0925867 5.59996 -0.000476672 6.06576 1.83593e-06 6.53608C1.83593e-06 9.22081 3.61057 13.1848 3.61057 13.1848C3.61057 13.1848 7.22114 9.22081 7.22114 6.53608C7.22162 6.06576 7.12855 5.59996 6.94727 5.16535C6.76599 4.73074 6.50006 4.33585 6.16469 4.00328C5.82933 3.67071 5.43111 3.407 4.99284 3.22723C4.55457 3.04747 4.08485 2.95518 3.61057 2.95565V2.95565ZM3.61057 7.81412C3.35567 7.81412 3.10649 7.73917 2.89455 7.59873C2.68261 7.4583 2.51742 7.2587 2.41988 7.02517C2.32233 6.79164 2.29681 6.53467 2.34654 6.28675C2.39627 6.03884 2.51901 5.81111 2.69925 5.63237C2.87949 5.45364 3.10914 5.33192 3.35914 5.2826C3.60914 5.23329 3.86827 5.2586 4.10377 5.35533C4.33927 5.45206 4.54055 5.61587 4.68216 5.82604C4.82378 6.03622 4.89936 6.28331 4.89936 6.53608C4.89904 6.87494 4.76316 7.19983 4.52153 7.43944C4.2799 7.67905 3.95228 7.8138 3.61057 7.81412V7.81412ZM21.8065 11.124V5.95417C21.798 5.41128 21.7147 4.87209 21.5591 4.35152C21.1613 2.97528 20.2809 1.7852 19.0765 0.99575C17.8721 0.2063 16.423 -0.1306 14.9903 0.0457627C13.5575 0.222125 12.2354 0.900152 11.2623 1.95765C10.2891 3.01515 9.72876 4.38258 9.68234 5.81351V6.11167L9.67021 7.15767V19.1229H9.66536V19.1722C9.66536 19.8099 9.40989 20.4215 8.95515 20.8725C8.5004 21.3234 7.88364 21.5768 7.24054 21.5768C6.59743 21.5768 5.98067 21.3234 5.52592 20.8725C5.07118 20.4215 4.81571 19.8099 4.81571 19.1722C4.81571 19.1578 4.81935 19.1433 4.82056 19.1277H4.81571V16.7916H2.39088V19.1962H2.39331C2.39411 20.4711 2.90557 21.6934 3.81517 22.5943C4.72477 23.4951 5.958 24.0008 7.24357 24C8.52913 23.9992 9.76172 23.492 10.6702 22.59C11.5787 21.688 12.0886 20.4651 12.0878 19.1902H12.0902V18.0096H12.0963V8.35996L12.1084 6.11167V5.81471C12.1429 4.86821 12.5514 3.97315 13.2456 3.32269C13.9398 2.67223 14.8641 2.31853 15.819 2.33795C16.7739 2.35736 17.6828 2.74832 18.3496 3.42644C19.0163 4.10457 19.3874 5.01549 19.3829 5.96259V11.1024C18.9186 11.3629 18.5539 11.768 18.3455 12.255C18.137 12.7419 18.0964 13.2835 18.2299 13.7956C18.3634 14.3078 18.6636 14.762 19.0839 15.0878C19.5042 15.4135 20.0211 15.5927 20.5546 15.5974C21.088 15.6022 21.6081 15.4323 22.0343 15.1141C22.4604 14.7959 22.7688 14.3471 22.9116 13.8374C23.0544 13.3277 23.0236 12.7855 22.824 12.295C22.6244 11.8044 22.2672 11.3928 21.8077 11.124H21.8065Z" fill="white"/>
</svg>
