<svg width="10" height="21" viewBox="0 0 10 21" fill="none" xmlns="http://www.w3.org/2000/svg">
<path d="M8.34077 20.3079C8.12731 20.3086 7.9164 20.2608 7.72354 20.1679C7.53068 20.0751 7.36076 19.9395 7.22628 19.7712L0.325041 11.0686C0.114887 10.8091 0 10.4836 0 10.1476C0 9.81164 0.114887 9.4861 0.325041 9.22657L7.46918 0.523972C7.71171 0.22777 8.06022 0.0414987 8.43804 0.00613751C8.81586 -0.0292237 9.19204 0.0892215 9.48383 0.335416C9.77562 0.58161 9.95912 0.935388 9.99395 1.31892C10.0288 1.70245 9.91211 2.08432 9.66958 2.38053L3.28272 10.1548L9.45526 17.9292C9.62998 18.1421 9.74096 18.4013 9.77508 18.6763C9.8092 18.9512 9.76503 19.2303 9.64779 19.4805C9.53054 19.7308 9.34514 19.9417 9.11351 20.0883C8.88188 20.2349 8.61372 20.3111 8.34077 20.3079Z" fill="white"/>
</svg>
