<svg width="30" height="30" viewBox="0 0 30 30" fill="none" xmlns="http://www.w3.org/2000/svg">
<path d="M29.015 15.9334C28.8916 15.9342 28.7692 15.9105 28.655 15.8638C28.5407 15.8172 28.4368 15.7484 28.3492 15.6615L14.9485 2.25139L1.54775 15.6615C1.36835 15.8151 1.13759 15.8954 0.901575 15.8863C0.665561 15.8772 0.441678 15.7793 0.274667 15.6123C0.107655 15.4453 0.00981557 15.2214 0.000699371 14.9854C-0.00841683 14.7494 0.0718619 14.5186 0.225493 14.3392L14.292 0.272696C14.4677 0.098036 14.7054 0 14.9532 0C15.2009 0 15.4386 0.098036 15.6143 0.272696L29.6808 14.3392C29.8099 14.4709 29.8972 14.6376 29.932 14.8187C29.9668 14.9997 29.9475 15.187 29.8765 15.3571C29.8054 15.5272 29.6858 15.6726 29.5326 15.7751C29.3794 15.8776 29.1994 15.9327 29.015 15.9334Z" fill="#0F857F"/>
<path d="M14.9485 5.42114L3.69531 16.7119V28.1245C3.69531 28.622 3.89291 29.099 4.24464 29.4507C4.59638 29.8025 5.07343 30.0001 5.57085 30.0001H12.1352V20.6224H17.7619V30.0001H24.3262C24.8237 30.0001 25.3007 29.8025 25.6524 29.4507C26.0042 29.099 26.2018 28.622 26.2018 28.1245V16.6462L14.9485 5.42114Z" fill="#0F857F"/>
</svg>
