<svg width="68" height="68" viewBox="0 0 68 68" fill="none" xmlns="http://www.w3.org/2000/svg">
<path d="M34 67.9997C52.7777 67.9997 68 52.7775 68 33.9999C68 15.2223 52.7777 0 34 0C15.2223 0 0 15.2223 0 33.9999C0 52.7775 15.2223 67.9997 34 67.9997Z" fill="#7F3F98"/>
<path d="M55.0925 60.6458C49.0935 65.4081 41.6594 68.0001 33.9999 68.0001C26.3404 68.0001 18.9064 65.4081 12.9073 60.6458L13.8518 57.2962C14.5647 54.9191 16.0285 52.8368 18.0239 51.3613C20.0193 49.8857 22.439 49.0962 24.9207 49.111H43.0792C45.5609 49.0962 47.9806 49.8857 49.976 51.3613C51.9714 52.8368 53.4352 54.9191 54.1481 57.2962L55.0925 60.6458Z" fill="#262234"/>
<path d="M39.0371 43.9982V50.8863C39.0369 51.1061 38.9755 51.3214 38.8598 51.5082C38.7442 51.695 38.5788 51.8459 38.3823 51.9441L34.5289 53.8708C34.3647 53.9528 34.1836 53.9955 34 53.9955C33.8165 53.9955 33.6354 53.9528 33.4712 53.8708L29.6178 51.9441C29.4213 51.8459 29.2559 51.695 29.1403 51.5082C29.0246 51.3214 28.9632 51.1061 28.963 50.8863V43.9982C28.963 43.6843 29.0877 43.3832 29.3097 43.1612C29.5317 42.9392 29.8328 42.8145 30.1467 42.8145H37.8408C37.9973 42.8129 38.1526 42.8422 38.2976 42.901C38.4427 42.9597 38.5747 43.0467 38.6859 43.1567C38.7972 43.2668 38.8855 43.3979 38.9458 43.5423C39.0061 43.6868 39.0371 43.8417 39.0371 43.9982Z" fill="#FFD2B4"/>
<path opacity="0.1" d="M39.0371 49.1111V50.8992C39.0368 51.1189 38.9755 51.3343 38.8598 51.5211C38.7442 51.7079 38.5788 51.8588 38.3822 51.957L34.5289 53.8837C34.3649 53.9666 34.1838 54.0099 34 54.0099C33.8163 54.0099 33.6351 53.9666 33.4711 53.8837L29.6178 51.957C29.4212 51.8588 29.2559 51.7079 29.1402 51.5211C29.0246 51.3343 28.9632 51.1189 28.963 50.8992V49.1111H26.4445V50.8992C26.4537 51.5774 26.6503 52.2398 27.0125 52.8132C27.3748 53.3865 27.8886 53.8485 28.497 54.1481L32.2748 56.0748C32.7923 56.3283 33.3608 56.4601 33.9371 56.4601C34.5133 56.4601 35.0818 56.3283 35.5993 56.0748L39.3771 54.1481C40.0091 53.8664 40.5488 53.4121 40.9342 52.8374C41.3195 52.2627 41.5349 51.5909 41.5556 50.8992V49.1111H39.0371Z" fill="white"/>
<path d="M34 12.8569C48.4185 12.8569 47.1844 26.4443 47.1844 26.4443C49.3 26.2302 50.9622 27.0613 50.9622 30.0458C50.9622 33.0302 49.7029 33.6472 48.0029 33.8235C47.9147 33.8294 47.8316 33.8671 47.7691 33.9297C47.7066 33.9922 47.6688 34.0753 47.6629 34.1635C47.1718 38.8102 43.8852 42.2102 40.6363 44.4894C38.6908 45.8618 36.3682 46.5985 33.9874 46.5985C31.6065 46.5985 29.284 45.8618 27.3385 44.4894C24.1022 42.2102 20.8029 38.7976 20.3118 34.1635C20.3059 34.0753 20.2682 33.9922 20.2057 33.9297C20.1432 33.8671 20.0601 33.8294 19.9718 33.8235C18.3222 33.6598 17.0126 33.0302 17.0126 30.0458C17.0126 27.0613 18.6118 26.268 20.7148 26.4443C20.74 26.4443 19.5689 12.8569 34 12.8569Z" fill="#FFD2B4"/>
<path opacity="0.1" d="M39.0371 45.4341V47.323C37.4673 48.085 35.745 48.4809 34 48.4809C32.2551 48.4809 30.5328 48.085 28.963 47.323V45.4341C30.5328 46.1961 32.2551 46.592 34 46.592C35.745 46.592 37.4673 46.1961 39.0371 45.4341Z" fill="#262234"/>
<path d="M29.0133 31.2925C30.1956 31.2925 31.154 30.334 31.154 29.1517C31.154 27.9694 30.1956 27.011 29.0133 27.011C27.831 27.011 26.8726 27.9694 26.8726 29.1517C26.8726 30.334 27.831 31.2925 29.0133 31.2925Z" fill="#262234"/>
<path d="M38.9867 31.2925C40.169 31.2925 41.1274 30.334 41.1274 29.1517C41.1274 27.9694 40.169 27.011 38.9867 27.011C37.8044 27.011 36.8459 27.9694 36.8459 29.1517C36.8459 30.334 37.8044 31.2925 38.9867 31.2925Z" fill="#262234"/>
<path d="M48.4815 19.1409C48.4186 18.0984 48.2326 17.0671 47.9275 16.0683C48.3296 14.373 48.4065 12.6167 48.1541 10.8928C48.125 10.7601 48.0676 10.6352 47.9859 10.5267C47.9041 10.4182 47.7999 10.3286 47.6804 10.2641C47.5608 10.1996 47.4288 10.1616 47.2932 10.1527C47.1577 10.1438 47.0218 10.1643 46.8949 10.2128C46.5926 10.3261 46.2652 10.4268 45.9378 10.5276C45.9952 10.055 45.9952 9.5772 45.9378 9.10461C45.9161 8.96626 45.8642 8.83437 45.786 8.71824C45.7077 8.60211 45.6049 8.50458 45.4848 8.43253C45.3647 8.36047 45.2302 8.31565 45.0909 8.30123C44.9516 8.28681 44.8109 8.30314 44.6786 8.34906C41.4135 9.38236 38.0261 9.97939 34.6045 10.1246H34C26.3312 10.1246 20.1482 10.515 19.5312 19.1409C19.3772 21.4626 19.4362 23.7936 19.7074 26.1045C19.7804 27.2629 19.9276 28.4154 20.1482 29.5549C20.3749 30.4616 22.7549 30.4238 22.906 29.5549C23.0571 28.686 22.4904 24.3164 24.6312 20.2616C27.6291 21.3654 30.8058 21.9034 34 21.8483C37.2071 21.9292 40.4013 21.4125 43.4193 20.3246C45.56 24.3794 45.0312 28.9253 45.1445 29.6179C45.2578 30.3105 47.663 30.4616 47.9023 29.6179C48.0897 28.569 48.2075 27.5089 48.2549 26.4445C48.5603 24.0226 48.6362 21.5771 48.4815 19.1409Z" fill="#262234"/>
<path d="M38.8734 34.6674C39.0689 34.6612 39.2632 34.7006 39.4408 34.7825C39.6185 34.8644 39.7746 34.9866 39.8968 35.1394C40.019 35.2921 40.104 35.4713 40.1449 35.6626C40.1858 35.8539 40.1816 36.0521 40.1326 36.2415C39.7826 37.5916 38.9941 38.7873 37.891 39.6409C36.7879 40.4945 35.4326 40.9577 34.0378 40.9577C32.643 40.9577 31.2877 40.4945 30.1846 39.6409C29.0815 38.7873 28.293 37.5916 27.943 36.2415C27.894 36.0521 27.8898 35.8539 27.9307 35.6626C27.9716 35.4713 28.0566 35.2921 28.1788 35.1394C28.301 34.9866 28.4571 34.8644 28.6348 34.7825C28.8124 34.7006 29.0067 34.6612 29.2022 34.6674H38.8734Z" fill="#691C24"/>
<path d="M37.0474 40.1826C36.1146 40.6985 35.0661 40.9692 34 40.9692C32.934 40.9692 31.8855 40.6985 30.9526 40.1826C31.2045 38.6337 32.4763 38.2056 34 38.2056C35.5237 38.2056 36.7956 38.6337 37.0474 40.1826Z" fill="#BE1E2D"/>
<path d="M37.6141 34.6675V35.8638C37.6141 35.9852 37.5668 36.1018 37.4821 36.1889C37.3974 36.2759 37.2821 36.3264 37.1608 36.3297H30.8645C30.7431 36.3264 30.6278 36.2759 30.5431 36.1889C30.4584 36.1018 30.4111 35.9852 30.4111 35.8638V34.6675H37.6141Z" fill="white"/>
</svg>
