<svg width="18" height="17" viewBox="0 0 18 17" fill="none" xmlns="http://www.w3.org/2000/svg">
<path d="M16.9913 7.0075C17.056 6.57672 16.7513 6.17627 16.3108 6.11304L11.7576 5.46217L9.723 1.4077C9.64973 1.28403 9.5446 1.18132 9.41802 1.10982C9.01838 0.883963 8.50712 1.01764 8.2761 1.40847L6.24225 5.46217L1.68911 6.11309C1.51504 6.13804 1.35414 6.21806 1.23086 6.34082C0.918947 6.65149 0.923717 7.1506 1.24143 7.4556L4.53886 10.6169L3.76073 15.0791C3.75335 15.1218 3.74956 15.165 3.74946 15.2084C3.74824 15.6444 4.10868 15.9988 4.55459 16C4.68604 15.9998 4.81546 15.9681 4.93147 15.9077L8.99994 13.8043L13.0676 15.9069C13.2248 15.9885 13.4052 16.0169 13.5807 15.9877C14.0191 15.9146 14.3139 15.5078 14.2392 15.0791L13.461 10.6169L16.7592 7.45479C16.8843 7.33438 16.9658 7.17734 16.9913 7.0075ZM12.7466 10.1983C12.6523 10.2888 12.6091 10.4186 12.631 10.546L13.4445 15.2106L9.18799 13.0102C9.07012 12.9502 8.92977 12.9502 8.8119 13.0102L4.55538 15.2114L5.36887 10.5461C5.39075 10.4187 5.34758 10.2888 5.25321 10.1983L1.80551 6.89321L6.56872 6.21233C6.70026 6.1931 6.81376 6.11203 6.87247 5.99538L8.99994 1.75554L11.1274 5.99533C11.1861 6.11198 11.2996 6.19305 11.4311 6.21229L16.1951 6.89239L12.7466 10.1983Z" fill="#2B2B2C" stroke="#2B2B2C"/>
</svg>
