<svg width="30" height="30" viewBox="0 0 30 30" fill="none" xmlns="http://www.w3.org/2000/svg">
<path d="M27.7278 2.625L27.3531 2.25C26.0417 0.75 23.9808 0 22.1073 0C20.2338 0 18.173 0.75 16.6742 2.25L2.2482 16.6875C-0.7494 19.6875 -0.7494 24.375 2.2482 27.375L2.6229 27.75C3.93435 29.25 5.9952 30 7.8687 30C9.7422 30 11.8031 29.25 13.3019 27.75L27.9152 13.125C30.7254 10.3125 30.7254 5.4375 27.7278 2.625ZM26.4164 12L19.1097 19.3125L12.5525 12.5625L5.43315 19.6875C3.3723 21.75 3.3723 24.375 3.55965 26.25C1.31145 24 1.31145 20.4375 3.55965 18.1875L18.173 3.5625C19.1097 2.4375 20.6085 1.875 22.1073 1.875C23.6061 1.875 25.1049 2.4375 26.229 3.5625L26.6037 3.9375C27.5405 4.875 28.1025 6.375 28.1025 7.875C28.1025 9.375 27.5405 10.875 26.4164 12Z" fill="#0F857F"/>
</svg>
