<svg width="42" height="42" viewBox="0 0 42 42" fill="none" xmlns="http://www.w3.org/2000/svg">
<path d="M21 41.9998C32.598 41.9998 42 32.5979 42 20.9999C42 9.40199 32.598 0 21 0C9.40202 0 0 9.40199 0 20.9999C0 32.5979 9.40202 41.9998 21 41.9998Z" fill="white"/>
<path d="M34.0277 37.4576C30.3224 40.399 25.7308 41.9999 20.9999 41.9999C16.2691 41.9999 11.6774 40.399 7.97217 37.4576L8.5555 35.3887C8.99583 33.9204 9.89991 32.6344 11.1324 31.723C12.3648 30.8116 13.8594 30.324 15.3922 30.3331H26.6077C28.1405 30.324 29.6351 30.8116 30.8675 31.723C32.1 32.6344 33.0041 33.9204 33.4444 35.3887L34.0277 37.4576Z" fill="#262234"/>
<path d="M24.1111 27.1755V31.4299C24.111 31.5656 24.0731 31.6986 24.0017 31.814C23.9302 31.9294 23.8281 32.0226 23.7067 32.0832L21.3267 33.2732C21.2253 33.3239 21.1134 33.3503 21 33.3503C20.8866 33.3503 20.7748 33.3239 20.6734 33.2732L18.2934 32.0832C18.172 32.0226 18.0698 31.9294 17.9984 31.814C17.927 31.6986 17.8891 31.5656 17.8889 31.4299V27.1755C17.8889 26.9816 17.9659 26.7956 18.1031 26.6585C18.2402 26.5214 18.4261 26.4444 18.62 26.4444H23.3722C23.4689 26.4433 23.5648 26.4615 23.6544 26.4978C23.744 26.5341 23.8255 26.5878 23.8943 26.6557C23.963 26.7237 24.0175 26.8047 24.0548 26.8939C24.092 26.9831 24.1111 27.0788 24.1111 27.1755Z" fill="#FFD2B4"/>
<path opacity="0.1" d="M24.111 30.333V31.4374C24.1109 31.5732 24.073 31.7061 24.0016 31.8215C23.9301 31.9369 23.828 32.0301 23.7066 32.0908L21.3266 33.2808C21.2253 33.332 21.1134 33.3587 20.9999 33.3587C20.8864 33.3587 20.7745 33.332 20.6733 33.2808L18.2933 32.0908C18.1718 32.0301 18.0697 31.9369 17.9983 31.8215C17.9269 31.7061 17.8889 31.5732 17.8888 31.4374V30.333H16.3333V31.4374C16.339 31.8563 16.4604 32.2654 16.6841 32.6196C16.9079 32.9737 17.2252 33.2591 17.601 33.4441L19.9344 34.6341C20.254 34.7907 20.6051 34.8721 20.961 34.8721C21.3169 34.8721 21.6681 34.7907 21.9877 34.6341L24.321 33.4441C24.7114 33.2701 25.0448 32.9895 25.2828 32.6345C25.5208 32.2796 25.6538 31.8646 25.6666 31.4374V30.333H24.111Z" fill="white"/>
<path d="M21 7.94116C29.9056 7.94116 29.1434 16.3334 29.1434 16.3334C30.45 16.2011 31.4767 16.7145 31.4767 18.5578C31.4767 20.4011 30.6989 20.7822 29.6489 20.8911C29.5944 20.8948 29.5431 20.9181 29.5045 20.9567C29.4659 20.9953 29.4426 21.0466 29.4389 21.1011C29.1356 23.9711 27.1056 26.0711 25.0989 27.4789C23.8973 28.3265 22.4628 28.7815 20.9923 28.7815C19.5217 28.7815 18.0872 28.3265 16.8856 27.4789C14.8867 26.0711 12.8489 23.9633 12.5456 21.1011C12.5419 21.0466 12.5186 20.9953 12.48 20.9567C12.4414 20.9181 12.3901 20.8948 12.3356 20.8911C11.3167 20.79 10.5078 20.4011 10.5078 18.5578C10.5078 16.7145 11.4956 16.2245 12.7945 16.3334C12.81 16.3334 12.0867 7.94116 21 7.94116Z" fill="#FFD2B4"/>
<path opacity="0.1" d="M24.1111 28.062V29.2287C23.1415 29.6993 22.0778 29.9438 21 29.9438C19.9222 29.9438 18.8585 29.6993 17.8889 29.2287V28.062C18.8585 28.5327 19.9222 28.7772 21 28.7772C22.0778 28.7772 23.1415 28.5327 24.1111 28.062Z" fill="#262234"/>
<path d="M17.9201 19.3278C18.6504 19.3278 19.2423 18.7358 19.2423 18.0056C19.2423 17.2753 18.6504 16.6833 17.9201 16.6833C17.1899 16.6833 16.5979 17.2753 16.5979 18.0056C16.5979 18.7358 17.1899 19.3278 17.9201 19.3278Z" fill="#262234"/>
<path d="M24.08 19.3278C24.8103 19.3278 25.4023 18.7358 25.4023 18.0056C25.4023 17.2753 24.8103 16.6833 24.08 16.6833C23.3498 16.6833 22.7578 17.2753 22.7578 18.0056C22.7578 18.7358 23.3498 19.3278 24.08 19.3278Z" fill="#262234"/>
<path d="M29.9444 11.8222C29.9055 11.1784 29.7907 10.5414 29.6022 9.92447C29.8506 8.87736 29.8981 7.79263 29.7422 6.72781C29.7242 6.64585 29.6888 6.56874 29.6383 6.50173C29.5878 6.43472 29.5234 6.3794 29.4496 6.33953C29.3757 6.29966 29.2942 6.27619 29.2105 6.27072C29.1267 6.26524 29.0428 6.2779 28.9644 6.30781C28.7778 6.37781 28.5755 6.44004 28.3733 6.50226C28.4087 6.21037 28.4087 5.91526 28.3733 5.62337C28.3599 5.53792 28.3279 5.45646 28.2795 5.38473C28.2312 5.313 28.1677 5.25276 28.0935 5.20826C28.0193 5.16376 27.9363 5.13607 27.8502 5.12717C27.7642 5.11826 27.6772 5.12834 27.5955 5.15671C25.5789 5.79492 23.4867 6.16367 21.3733 6.25337H21C16.2633 6.25337 12.4444 6.49448 12.0633 11.8222C11.9682 13.2563 12.0047 14.696 12.1722 16.1233C12.2172 16.8388 12.3082 17.5506 12.4444 18.2544C12.5844 18.8144 14.0544 18.7911 14.1477 18.2544C14.2411 17.7178 13.8911 15.0189 15.2133 12.5145C17.065 13.1962 19.0271 13.5285 21 13.4945C22.9808 13.5444 24.9537 13.2253 26.8177 12.5533C28.14 15.0578 27.8133 17.8655 27.8833 18.2933C27.9533 18.7211 29.4389 18.8144 29.5866 18.2933C29.7024 17.6455 29.7752 16.9908 29.8044 16.3333C29.9931 14.8374 30.04 13.327 29.9444 11.8222Z" fill="#262234"/>
<path d="M24.01 21.412C24.1308 21.4082 24.2508 21.4325 24.3605 21.4831C24.4703 21.5337 24.5667 21.6092 24.6422 21.7035C24.7177 21.7979 24.7701 21.9085 24.7954 22.0267C24.8207 22.1448 24.8181 22.2673 24.7878 22.3842C24.5716 23.2182 24.0846 23.9567 23.4033 24.4839C22.722 25.0111 21.8849 25.2972 21.0234 25.2972C20.1619 25.2972 19.3248 25.0111 18.6434 24.4839C17.9621 23.9567 17.4751 23.2182 17.2589 22.3842C17.2287 22.2673 17.2261 22.1448 17.2513 22.0267C17.2766 21.9085 17.3291 21.7979 17.4046 21.7035C17.48 21.6092 17.5765 21.5337 17.6862 21.4831C17.7959 21.4325 17.9159 21.4082 18.0367 21.412H24.01Z" fill="#691C24"/>
<path d="M22.8824 24.8188C22.3062 25.1374 21.6586 25.3046 21.0001 25.3046C20.3417 25.3046 19.6941 25.1374 19.1179 24.8188C19.2735 23.8621 20.059 23.5977 21.0001 23.5977C21.9413 23.5977 22.7268 23.8621 22.8824 24.8188Z" fill="#BE1E2D"/>
<path d="M23.2323 21.4121V22.151C23.2324 22.226 23.2031 22.298 23.1508 22.3518C23.0985 22.4055 23.0273 22.4367 22.9523 22.4388H19.0634C18.9885 22.4367 18.9173 22.4055 18.865 22.3518C18.8127 22.298 18.7834 22.226 18.7834 22.151V21.4121H23.2323Z" fill="white"/>
</svg>
