<svg width="30" height="30" viewBox="0 0 30 30" fill="none" xmlns="http://www.w3.org/2000/svg">
<path fill-rule="evenodd" clip-rule="evenodd" d="M10.5 3H3V10.5H10.5V3ZM3 0C1.34314 0 0 1.34314 0 3V10.5C0 12.1569 1.34314 13.5 3 13.5H10.5C12.1569 13.5 13.5 12.1569 13.5 10.5V3C13.5 1.34314 12.1569 0 10.5 0H3ZM10.5 19.5H3V27H10.5V19.5ZM3 16.5C1.34314 16.5 0 17.8431 0 19.5V27C0 28.6569 1.34314 30 3 30H10.5C12.1569 30 13.5 28.6569 13.5 27V19.5C13.5 17.8431 12.1569 16.5 10.5 16.5H3ZM27 3H19.5V10.5H27V3ZM19.5 0C17.8431 0 16.5 1.34314 16.5 3V10.5C16.5 12.1569 17.8431 13.5 19.5 13.5H27C28.6569 13.5 30 12.1569 30 10.5V3C30 1.34314 28.6569 0 27 0H19.5ZM27 19.5H19.5V27H27V19.5ZM19.5 16.5C17.8431 16.5 16.5 17.8431 16.5 19.5V27C16.5 28.6569 17.8431 30 19.5 30H27C28.6569 30 30 28.6569 30 27V19.5C30 17.8431 28.6569 16.5 27 16.5H19.5Z" fill="#979BA3"/>
</svg>
