<svg width="20" height="20" viewBox="0 0 20 20" fill="none" xmlns="http://www.w3.org/2000/svg">
<path d="M2.99997 20H16.3333C17.0911 20 17.8178 19.699 18.3536 19.1632C18.8894 18.6273 19.1904 17.9006 19.1904 17.1429V8.57143C19.1904 7.81367 18.8894 7.08694 18.3536 6.55112C17.8178 6.01531 17.0911 5.71429 16.3333 5.71429H14.4285V4.7619C14.4285 3.49897 13.9268 2.28776 13.0338 1.39473C12.1408 0.501699 10.9296 0 9.66663 0C8.4037 0 7.19249 0.501699 6.29946 1.39473C5.40643 2.28776 4.90473 3.49897 4.90473 4.7619V5.71429H2.99997C2.2422 5.71429 1.51548 6.01531 0.97966 6.55112C0.443842 7.08694 0.142822 7.81367 0.142822 8.57143V17.1429C0.142822 17.9006 0.443842 18.6273 0.97966 19.1632C1.51548 19.699 2.2422 20 2.99997 20ZM6.80949 4.7619C6.80949 4.00414 7.11051 3.27742 7.64633 2.7416C8.18214 2.20578 8.90887 1.90476 9.66663 1.90476C10.4244 1.90476 11.1511 2.20578 11.6869 2.7416C12.2228 3.27742 12.5238 4.00414 12.5238 4.7619V5.71429H6.80949V4.7619ZM2.04758 8.57143C2.04758 8.31884 2.14792 8.0766 2.32653 7.89799C2.50514 7.71939 2.74738 7.61905 2.99997 7.61905H16.3333C16.5859 7.61905 16.8281 7.71939 17.0067 7.89799C17.1853 8.0766 17.2857 8.31884 17.2857 8.57143V17.1429C17.2857 17.3954 17.1853 17.6377 17.0067 17.8163C16.8281 17.9949 16.5859 18.0952 16.3333 18.0952H2.99997C2.74738 18.0952 2.50514 17.9949 2.32653 17.8163C2.14792 17.6377 2.04758 17.3954 2.04758 17.1429V8.57143Z" fill="#0F857F"/>
<path d="M9.66648 14.7619C10.7185 14.7619 11.5712 13.9091 11.5712 12.8572C11.5712 11.8052 10.7185 10.9524 9.66648 10.9524C8.61451 10.9524 7.76172 11.8052 7.76172 12.8572C7.76172 13.9091 8.61451 14.7619 9.66648 14.7619Z" fill="#0F857F"/>
</svg>
