<svg width="13" height="17" viewBox="0 0 13 17" fill="none" xmlns="http://www.w3.org/2000/svg">
<path d="M12.0969 6.07236L11.8239 14.3598C11.8006 15.0696 11.5025 15.7423 10.9927 16.2353C10.4829 16.7282 9.80167 17.0025 9.09351 17H3.9058C3.1981 17.0025 2.51724 16.7286 2.00754 16.2362C1.49784 15.7439 1.19938 15.0718 1.17543 14.3625L0.902389 6.07236C0.896415 5.89081 0.962602 5.71432 1.08639 5.58171C1.21018 5.44911 1.38142 5.37124 1.56246 5.36525C1.74349 5.35926 1.91949 5.42563 2.05172 5.54977C2.18396 5.6739 2.2616 5.84563 2.26758 6.02718L2.54061 14.3167C2.55421 14.6706 2.70402 15.0054 2.95859 15.2508C3.21315 15.4963 3.55266 15.6333 3.9058 15.633H9.09351C9.44711 15.6332 9.78701 15.4959 10.0417 15.2498C10.2963 15.0038 10.4458 14.6683 10.4587 14.3139L10.7317 6.02718C10.7377 5.84563 10.8154 5.6739 10.9476 5.54977C11.0798 5.42563 11.2558 5.35926 11.4369 5.36525C11.6179 5.37124 11.7891 5.44911 11.9129 5.58171C12.0367 5.71432 12.1029 5.89081 12.0969 6.07236ZM13 3.31444C13 3.49598 12.9281 3.67009 12.8001 3.79846C12.6721 3.92684 12.4984 3.99895 12.3174 3.99895H0.682594C0.501559 3.99895 0.327938 3.92684 0.199927 3.79846C0.0719157 3.67009 0 3.49598 0 3.31444C0 3.13289 0.0719157 2.95878 0.199927 2.83041C0.327938 2.70204 0.501559 2.62992 0.682594 2.62992H2.79863C3.01491 2.6305 3.22367 2.55037 3.38429 2.40512C3.5449 2.25987 3.64588 2.05989 3.66758 1.8441C3.71795 1.33789 3.95444 0.868611 4.33099 0.527706C4.70753 0.186801 5.19714 -0.00131654 5.70444 6.93613e-06H7.29488C7.80217 -0.00131654 8.29179 0.186801 8.66833 0.527706C9.04487 0.868611 9.28137 1.33789 9.33174 1.8441C9.35344 2.05989 9.45442 2.25987 9.61503 2.40512C9.77565 2.55037 9.9844 2.6305 10.2007 2.62992H12.3167C12.4978 2.62992 12.6714 2.70204 12.7994 2.83041C12.9274 2.95878 12.9993 3.13289 12.9993 3.31444H13ZM4.85256 2.62992H8.14812C8.05843 2.42439 7.99976 2.2066 7.97406 1.98374C7.95715 1.81501 7.87839 1.65858 7.75304 1.54476C7.62768 1.43095 7.46466 1.36784 7.29556 1.36767H5.70512C5.53602 1.36784 5.373 1.43095 5.24765 1.54476C5.12229 1.65858 5.04353 1.81501 5.02662 1.98374C5.0007 2.20664 4.94181 2.42443 4.85188 2.62992H4.85256ZM5.53993 13.001V7.17237C5.53993 6.99083 5.46802 6.81672 5.34 6.68835C5.21199 6.55998 5.03837 6.48786 4.85734 6.48786C4.6763 6.48786 4.50268 6.55998 4.37467 6.68835C4.24666 6.81672 4.17474 6.99083 4.17474 7.17237V13.0038C4.17474 13.1853 4.24666 13.3594 4.37467 13.4878C4.50268 13.6162 4.6763 13.6883 4.85734 13.6883C5.03837 13.6883 5.21199 13.6162 5.34 13.4878C5.46802 13.3594 5.53993 13.1853 5.53993 13.0038V13.001ZM8.82594 13.001V7.17237C8.82594 6.99083 8.75402 6.81672 8.62601 6.68835C8.498 6.55998 8.32438 6.48786 8.14334 6.48786C7.96231 6.48786 7.78869 6.55998 7.66068 6.68835C7.53267 6.81672 7.46075 6.99083 7.46075 7.17237V13.0038C7.46075 13.1853 7.53267 13.3594 7.66068 13.4878C7.78869 13.6162 7.96231 13.6883 8.14334 13.6883C8.32438 13.6883 8.498 13.6162 8.62601 13.4878C8.75402 13.3594 8.82594 13.1853 8.82594 13.0038V13.001Z" fill="#404040"/>
</svg>
