<svg width="25" height="31" viewBox="0 0 25 31" fill="none" xmlns="http://www.w3.org/2000/svg">
<path d="M12.5 0C9.18594 0.00369236 6.00867 1.31134 3.66528 3.63605C1.32188 5.96076 0.00372204 9.11269 0 12.4003C0 17.4457 3.69219 21.6355 7.60313 26.0701C8.84063 27.4745 10.1219 28.9269 11.2625 30.3963C11.4085 30.5841 11.5959 30.7362 11.8105 30.8409C12.025 30.9456 12.2609 31 12.5 31C12.7391 31 12.975 30.9456 13.1895 30.8409C13.4041 30.7362 13.5915 30.5841 13.7375 30.3963C14.8781 28.9269 16.1594 27.4745 17.3969 26.0701C21.3078 21.6355 25 17.4457 25 12.4003C24.9963 9.11269 23.6781 5.96076 21.3347 3.63605C18.9913 1.31134 15.8141 0.00369236 12.5 0V0ZM12.5 17.0504C11.5729 17.0504 10.6666 16.7777 9.89576 16.2668C9.12491 15.7558 8.5241 15.0295 8.16931 14.1798C7.81453 13.3301 7.7217 12.3952 7.90257 11.4931C8.08344 10.5911 8.52988 9.76252 9.18544 9.11219C9.841 8.46186 10.6762 8.01898 11.5855 7.83955C12.4948 7.66013 13.4373 7.75221 14.2938 8.10417C15.1504 8.45613 15.8824 9.05215 16.3975 9.81685C16.9126 10.5816 17.1875 11.4806 17.1875 12.4003C17.1875 13.6336 16.6936 14.8164 15.8146 15.6885C14.9355 16.5605 13.7432 17.0504 12.5 17.0504Z" fill="#0F857F"/>
</svg>
