<svg width="18" height="17" viewBox="0 0 18 17" fill="none" xmlns="http://www.w3.org/2000/svg">
<path d="M8.89231 9.54615C11.5338 9.54615 13.6523 7.40154 13.6523 4.78615C13.6523 2.17077 11.5338 0 8.89231 0C6.25077 0 4.13231 2.14462 4.13231 4.76C4.13231 7.37539 6.25077 9.54615 8.89231 9.54615ZM8.89231 1.25538C10.8277 1.25538 12.3969 2.82462 12.3969 4.76C12.3969 6.69538 10.8277 8.26462 8.89231 8.26462C6.95692 8.26462 5.38769 6.72154 5.38769 4.78615C5.38769 2.85077 6.95692 1.25538 8.89231 1.25538ZM0.627692 17H17.2092C17.5492 17 17.8369 16.7123 17.8369 16.3723C17.8369 13.0769 15.1431 10.3831 11.8477 10.3831H5.98923C2.69385 10.3831 0 13.0769 0 16.3723C0 16.7123 0.287692 17 0.627692 17ZM5.98923 11.6385H11.8477C14.2538 11.6385 16.2154 13.4169 16.5292 15.7446H1.30769C1.62154 13.4169 3.58308 11.6385 5.98923 11.6385Z" fill="#0F857F"/>
</svg>
